<?xml version="1.0" encoding="UTF-8"?><svg id="a" xmlns="http://www.w3.org/2000/svg" xmlns:xlink="http://www.w3.org/1999/xlink" viewBox="0 0 200 200"><defs><style>.c{fill:url(#b);}.d{fill:#fff;}.e{fill:none;stroke:#798889;stroke-linecap:round;stroke-linejoin:round;stroke-width:4px;}</style><linearGradient id="b" x1="100" y1="111.6" x2="100" y2="152.16" gradientTransform="matrix(1, 0, 0, 1, 0, 0)" gradientUnits="userSpaceOnUse"><stop offset="0" stop-color="#6ac6db"/><stop offset="1" stop-color="#0ea3c5"/></linearGradient></defs><path class="d" d="M141.24,142.22l-23.45-59.5c-2.03-5.16-3.08-10.65-3.08-16.2v-16.97c2.08-.59,3.6-2.49,3.6-4.76,0-2.73-2.22-4.95-4.96-4.95h-26.71c-2.74,0-4.96,2.22-4.96,4.95,0,2.26,1.52,4.17,3.6,4.76v16.97c0,5.54-1.04,11.04-3.08,16.2l-23.45,59.5c-3.4,8.61,2.96,17.94,12.23,17.94h58.02c9.27,0,15.63-9.32,12.23-17.94Z"/><path class="c" d="M120.57,111.6h-41.14l-13.23,33.56c-.89,2.27,.07,4.08,.53,4.75,.46,.68,1.8,2.25,4.26,2.25h58.02c2.46,0,3.8-1.57,4.26-2.25,.46-.67,1.43-2.48,.53-4.75l-13.23-33.56Z"/><path class="e" d="M85.29,49.85v16.68c0,5.54-1.04,11.04-3.08,16.2l-23.45,59.5c-3.4,8.61,2.96,17.94,12.23,17.94h58.02c9.27,0,15.63-9.32,12.23-17.94l-23.45-59.5c-2.03-5.16-3.08-10.65-3.08-16.2v-16.68"/><path class="e" d="M86.64,49.74c-2.74,0-4.96-2.22-4.96-4.95h0c0-2.73,2.22-4.95,4.96-4.95h26.71c2.74,0,4.96,2.22,4.96,4.95h0c0,2.73-2.22,4.95-4.96,4.95h-10.51"/><g><line class="e" x1="113.52" y1="105.91" x2="107.57" y2="105.91"/><line class="e" x1="113.52" y1="115.52" x2="107.57" y2="115.52"/><line class="e" x1="113.52" y1="125.12" x2="107.57" y2="125.12"/><line class="e" x1="113.52" y1="134.72" x2="107.57" y2="134.72"/><line class="e" x1="113.52" y1="144.32" x2="107.57" y2="144.32"/></g></svg>